<svg xmlns="http://www.w3.org/2000/svg" width="30" height="30" viewBox="0 0 30 30"><path fill="#0F5CA7" d="M3.95.193h22.1c2.183 0 3.95 1.77 3.95 3.94v21.733c0 2.177-1.768 3.94-3.95 3.94H3.95A3.945 3.945 0 0 1 0 25.866V4.134A3.947 3.947 0 0 1 3.95.194"/><path fill="#FFFEFF" d="M7.66 4.565c-1.78 0-3.247 1.43-3.247 3.194 0 1.766 1.467 3.196 3.246 3.196 1.8 0 3.268-1.43 3.268-3.197 0-1.765-1.468-3.195-3.27-3.195zm0 .383c1.597 0 2.885 1.26 2.885 2.812 0 1.554-1.288 2.814-2.886 2.814-1.575 0-2.864-1.26-2.864-2.814 0-1.552 1.29-2.812 2.863-2.812zM15.01 4.565c-1.78 0-3.247 1.43-3.247 3.194 0 1.766 1.467 3.196 3.246 3.196 1.8 0 3.268-1.43 3.268-3.197 0-1.765-1.47-3.195-3.27-3.195zm0 .383c1.597 0 2.885 1.26 2.885 2.812 0 1.554-1.288 2.814-2.886 2.814-1.575 0-2.864-1.26-2.864-2.814 0-1.552 1.29-2.812 2.863-2.812zM22.38 4.633c-1.77 0-3.187 1.404-3.187 3.14 0 1.73 1.418 3.135 3.188 3.135 1.75 0 3.19-1.404 3.19-3.136 0-1.736-1.442-3.14-3.19-3.14zM22.38 11.857c-1.77 0-3.187 1.406-3.187 3.14 0 1.73 1.418 3.138 3.188 3.138 1.75 0 3.19-1.407 3.19-3.14 0-1.734-1.44-3.138-3.19-3.138zM22.38 19.1c-1.77 0-3.187 1.41-3.187 3.142 0 1.733 1.418 3.14 3.188 3.14 1.75 0 3.19-1.405 3.19-3.14 0-1.732-1.44-3.142-3.19-3.142zM7.66 11.798c-1.78 0-3.247 1.43-3.247 3.198 0 1.764 1.467 3.198 3.246 3.198 1.8 0 3.268-1.434 3.268-3.198 0-1.767-1.468-3.198-3.27-3.198zm0 .383c1.597 0 2.885 1.26 2.885 2.815 0 1.55-1.288 2.815-2.886 2.815-1.575 0-2.864-1.263-2.864-2.815 0-1.554 1.29-2.814 2.863-2.814zM15.01 11.857c-1.75 0-3.19 1.405-3.19 3.14 0 1.73 1.44 3.138 3.19 3.138 1.768 0 3.21-1.407 3.21-3.14 0-1.734-1.442-3.138-3.21-3.138zM7.66 19.034c-1.78 0-3.247 1.43-3.247 3.197s1.467 3.195 3.246 3.195c1.8 0 3.268-1.428 3.268-3.194s-1.468-3.196-3.27-3.196zm0 .383c1.597 0 2.885 1.26 2.885 2.814 0 1.556-1.288 2.813-2.886 2.813-1.575 0-2.864-1.258-2.864-2.812s1.29-2.813 2.863-2.813zM15.01 19.034c-1.78 0-3.247 1.43-3.247 3.197s1.467 3.195 3.246 3.195c1.8 0 3.268-1.428 3.268-3.194s-1.47-3.196-3.27-3.196zm0 .383c1.597 0 2.885 1.26 2.885 2.814 0 1.556-1.288 2.813-2.886 2.813-1.575 0-2.864-1.258-2.864-2.812s1.29-2.813 2.863-2.813z"/></svg>