<?xml version="1.0" encoding="utf-8"?>
<!-- Generator: Adobe Illustrator 19.1.0, SVG Export Plug-In . SVG Version: 6.00 Build 0)  -->
<svg version="1.1" id="Ebene_1" xmlns="http://www.w3.org/2000/svg" xmlns:xlink="http://www.w3.org/1999/xlink" x="0px" y="0px"
	 viewBox="-304 226 30 30" style="enable-background:new -304 226 30 30;" xml:space="preserve">
<style type="text/css">
	.st0{fill:#524E4C;}
</style>
<path class="st0" d="M-277.2,226h-23.6c-1.8,0-3.2,1.4-3.2,3.2v23.6c0,1.8,1.4,3.2,3.2,3.2h23.6c1.8,0,3.2-1.4,3.2-3.2v-23.6
	C-274,227.4-275.4,226-277.2,226z M-287.6,246c-1.3-0.1-1.8-0.7-2.9-1.4c-0.6,2.9-1.2,5.7-3.3,7.2c-0.6-4.4,0.9-7.8,1.6-11.3
	c-1.2-2.1,0.1-6.2,2.7-5.2c3.2,1.3-2.7,7.6,1.2,8.4c4.1,0.8,5.8-7.2,3.3-9.8c-3.7-3.8-10.8-0.1-9.9,5.3c0.2,1.3,1.6,1.7,0.5,3.5
	c-2.4-0.5-3.1-2.4-3-4.9c0.1-4.1,3.7-6.9,7.2-7.3c4.5-0.5,8.7,1.6,9.2,5.8C-280.2,241.2-282.8,246.4-287.6,246z"/>
</svg>
