<svg xmlns="http://www.w3.org/2000/svg" width="274" height="253" viewBox="0 0 274 253"><g fill="none"><path fill="#CC071E" d="M182.385641 39.2427139C184.380045 39.8220211 198.346141 41.7932758 202.703795 42.626477 206.622346 43.377431 210.704244 43.9120389 214.511263 44.7041167 218.511487 45.5373179 226.047365 46.3267139 228.435205 46.8756254 230.823045 47.425431 231.892699 48.061954 233.096718 48.2058869 235.34141 48.4839187 236.686821 49.2920885 238.861256 49.6720353 240.544776 49.9813568 242.41184 50.1664135 244.105897 50.2790564 246.19866 50.4131555 247.953314 50.8038305 249.923128 50.9272015 251.137686 50.9996147 252.606923 50.7627067 253.781083 51.0505726 255.107173 51.3795619 255.444404 52.0178727 255.556814 50.2379329 255.638487 49.0247845 254.913968 48.2121448 254.770821 47.1313075 254.674218 46.3875052 254.695295 45.809092 254.675096 45.2011766 254.645237 44.3196996 254.382654 44.0666996 250.360474 43.3899469 248.591769 43.0922473 244.810218 41.483954 243.983827 41.4124345 242.064949 41.238106 235.084974 38.3889504 233.217032 37.8328869 231.789071 37.4010885 224.318179 35.1276643 222.246494 34.3257527 220.317955 33.5855266 218.297205 33.5953603 216.56275 32.6700778 214.725545 31.6929436 212.857603 31.5069929 210.806994 31.3737881 208.908314 31.250417 201.632385 29.2550247 200.02 28.7821025 196.488737 27.7325548 193.120821 26.0357562 189.937327 24.6464912 187.926237 23.7623321 181.221141 22.9809823 179.517423 22.4776643 176.701897 21.6444629 166.372449 18.8328551 162.698038 17.6724523 161.628385 17.334523 161.148006 17.1226466 160.882788 15.0092473 160.81341 14.4513958 160.86259 12.4577915 160.98466 11.891894 161.260417 10.6885795 162.949205 8.92383746 162.965013 6.19358305 162.974673 4.47354064 162.513615 4.78375619 161.260417 4.37341342 160.007218 3.96307067 159.013968 2.95375265 156.495276 2.11697527 155.506417 1.78887986 153.36184 1.59220141 152.293064 1.2399682 151.225167.888628976 150.269679.0223498233 149.06566.362067139 147.687756.752742048 147.422538 1.71914841 147.238115 2.99487633 146.9325 5.00099647 147.075647 6.73891873 146.513596 8.601106 146.061321 10.1021202 145.741654 11.3161625 145.345583 12.7447633 145.249859 13.0871625 145.239321 13.8854982 143.418801 13.9936714 141.636923 14.0991625 139.525718 14.294053 138.064385 14.1858798 136.063833 14.041947 134.613917 13.280265 132.369224 13.1059364 128.259224 12.7858869 124.103558 12.8073427 119.969846 12.6634099 115.816814 12.519477 111.928122 11.4913852 107.713615 11.3474523 103.468372 11.1927915 99.2942627 11.0282968 95.150891 11.4395336 87.384923 12.2208834 78.9348333 11.6657138 70.7605 11.3778481 66.658404 11.2339152 62.565968 11.0899823 58.473532 10.9460495 56.320173 10.8638021 54.157154 10.7198692 52.003795 10.7198692 49.778423 10.7091413 47.7374743 11.4600954 45.3698333 11.3680141 42.910859 11.2750389 40.7882373 11.6451519 38.3283847 11.5629046 36.1319937 11.4833392 33.8117757 11.3993039 31.604846 11.2741449 30.701173 11.2231873 30.598423 11.6970035 30.5711987 12.0501308 30.521141 12.6911237 30.4965513 13.6298163 30.315641 14.3396466 29.9871923 15.6261025 31.569718 15.6019647 32.2775513 15.7700353 32.9853847 15.937212 180.390359 38.6625123 182.385641 39.2427139M273.242109 81.1638305C273.242109 79.5948727 273.00675 75.2894028 273.00675 71.454173 273.00675 65.004908 268.966128 67.0968516 261.056135 67.6073215 256.494737 67.9014452 249.575359 67.8638976 249.575359 67.8638976 249.575359 67.8638976 249.306628 60.2372437 249.21266 58.2767174 249.152942 57.0260211 248.892994 56.8445405 247.411462 56.8740424 239.904564 57.0224452 230.886276 56.9419857 224.694929 55.9013782 212.224417 53.8031766 137.593667 51.7148091 103.130263 45.4300389 80.7799423 41.3552191 29.2029551 43.8002897 27.8847692 43.9200849 26.5665833 44.0398798 26.1766603 44.1864948 26.274141 45.4050071 26.3461538 49.5897881 26.5349679 53.7906607 26.7650577 57.9995794 26.7650577 57.9995794 11.5115128 57.7769754 8.5791859 57.9995794 5.64773717 58.2230778.415391027 57.6294663.415391027 63.7595758.415391027 69.8798516.252044872 69.936173.170371795 71.0831662.088698718 72.2310531-1.29535256 74.39094 5.45628847 74.7556889L27.6933205 77.4913075C28.8569423 105.737014 28.6839359 169.956996 30.2146474 188.009396 31.663686 205.155286 31.5003397 217.756117 40.3579167 232.74212 43.215596 237.576834 47.3493077 241.063406 52.3498077 243.265311 62.973455 247.945364 83.2714103 246.658908 94.9770063 248.891208 96.293436 249.415982 120.602154 252.110477 122.000256 252.419798 125.949545 253.253 144.208308 252.817625 157.370846 252.99553 170.534263 253.173435 223.082545 247.90424 223.082545 247.90424 245.554058 242.955989 245.411788 249.045869 244.656532 200.990173 244.799679 156.893972 245.248442 147.528502 245.901827 103.433194 245.972962 98.2382015 246.330391 93.0539365 246.758955 87.8598373 248.106122 87.6747809 249.575359 87.4897242 251.187744 87.3145016 261.251974 86.2220424 266.858436 85.26994 269.917224 84.610173 269.917224 84.610173 273.242109 83.9513004 273.242109 81.1638305"/><path fill="#FFFFFF" d="M113.843487 202.292721C113.644135 202.494763 113.432487 202.593102 113.141801 202.593102 113.141801 202.593102 111.818346 202.564495 111.310744 202.580587 111.26859 202.581481 111.191308 202.40447 111.166718 202.400894 111.123686 202.39553 111.146519 202.561813 111.13159 202.569859 111.00425 202.63959 110.736397 202.593102 110.736397 202.593102 110.443955 202.593102 110.166442 202.518901 109.902103 202.370498 109.636885 202.222989 109.349712 202.045979 109.266282 201.66335 109.239058 200.743431 108.804346 199.777025 108.453942 197.365032 108.059628 194.992375 107.67234 193.462753 107.522167 192.739512 107.396583 192.228148 107.268365 191.05076 107.136635 189.534548 107.023346 189.400449 106.967141 189.061625 107.002269 188.603901 107.005782 188.562777 107.008417 188.52076 107.05584 188.441194L107.0655 188.316035C106.952212 188.181936 106.892494 187.884237 106.804673 187.417573L106.710705 186.490502C106.717731 186.40736 106.707192 185.774413 106.553506 184.548749 106.535064 184.254625 106.153045 184.043643 106.144263 183.625254 106.090692 183.244413 106.07225 182.95029 106.040635 182.822449L104.866474 176.689657C104.718936 175.994131 104.659218 174.578046 104.573154 173.527604 104.545929 173.195933 104.458109 173.227223 104.436154 172.907173 104.406295 172.467329 104.408929 172.211647 104.386096 171.84511 104.355359 171.333746 104.265782 171.911265 104.24734 171.682403 104.189378 170.950223 104.195526 169.826473 104.030423 169.066579 103.851269 168.239636 103.701974 166.959438 103.597468 166.296989L103.42534 166.296989C103.482423 166.836961 103.54741 168.103749 103.593077 168.588293 103.607128 168.741166 103.577269 168.847551 103.590442 169.024562 103.612397 169.32405 103.661577 169.720088 103.680019 170.142947 103.745885 171.612671 103.727442 175.487237 103.727442 177.10447L103.696705 177.371774 103.576391 179.094498C103.573756 179.510205 103.651038 179.807011 103.678263 180.015311L103.644013 180.816329C103.670359 181.262431 103.696705 181.619134 103.694949 181.945442L103.69934 184.41018C103.726564 184.677484 103.724808 184.915286 103.723929 185.063689 103.748519 185.6573 103.634353 186.459212 103.657186 187.469424L103.961045 189.518456 103.961045 189.547958 103.918891 192.548198 104.162154 196.325318 103.996173 196.859032C104.024276 197.067332 104.023397 197.246131 104.022519 197.334636L104.109462 198.225947 104.107705 198.403852 104.105949 198.731053C104.134051 198.849954 104.133173 198.938459 104.133173 198.967961L104.151615 201.049177C104.151615 201.234233 104.093654 201.291449 104.016372 201.439852 103.969827 201.528357 103.927673 201.721459 103.853026 201.796555 103.654551 201.999491 103.494718 202.100512 103.204032 202.100512 103.204032 202.100512 102.38291 202.012007 102.170385 202.048661 101.956981 202.084421 101.892872 202.100512 101.892872 202.100512 101.601308 202.100512 101.38 202.030781 101.181526 201.828738 101.156936 201.803707 101.102487 201.761689 101.080532 201.734869 101.063846 201.714308 101.077897 201.615968 101.062968 201.594512 101.045404 201.568587 101.006763 201.604346 100.991833 201.577527 100.93475 201.519417 100.7635 201.406774 100.723103 201.341512 100.635282 201.185958 100.597519 200.988385 100.597519 200.790813L100.598397 199.718915 100.598397 199.67064C100.599276 199.525813 100.646699 199.235265 100.695 198.896442 100.695 198.798996 100.695 198.654169 100.647577 198.411898L100.648455 197.975629 100.720468 197.781633 100.721346 197.297982 100.643186 196.378064C100.690609 196.232343 100.691487 195.941795 100.691487 195.602972L100.692365 195.5243 100.392897 189.48806C100.442955 187.79305 100.285756 186.437756 100.286635 185.323841L100.243603 183.047735 100.220769 182.272643 100.291904 181.304449 100.292782 180.965625 100.292782 180.86818C100.29366 180.577633 100.341083 180.093982 100.389385 179.463717 100.390263 179.270615 100.350744 178.980067 100.304199 178.543798 100.256776 178.1567 100.376212 177.866152 100.37709 177.62388L100.331423 172.866944 100.485987 171.977421 100.535167 170.622127 100.608058 169.985604 100.608058 169.646781C100.608936 169.307958 100.656359 168.969134 100.70466 168.678587 100.70466 168.532866 100.705538 168.194042 100.658115 167.757774 100.658994 167.322399 100.611571 166.983576 100.564147 166.741304L100.566782 165.142844 100.520237 164.513473 100.521115 163.834933C100.521115 163.544385 100.521115 163.351283 100.474571 163.253837 100.474571 163.205562 100.474571 163.060735 100.569417 162.866738 100.570295 162.721912 100.617718 162.576191 100.617718 162.47964 100.617718 162.431364 100.617718 162.382194 100.570295 162.382194L100.570295 162.237367C100.618596 162.140816 100.666019 162.043371 100.666019 161.995095L100.666019 161.94682 100.571173 161.656272C100.571173 161.457806 100.484231 161.444396 100.572929 161.287947 100.61684 161.211064 100.803897 160.97505 100.868885 160.908 101.067359 160.705958 101.3115 160.604936 101.603064 160.604936 101.603064 160.604936 101.755872 160.617452 101.879699 160.688078 101.920974 160.711321 102.891391 160.694336 103.181199 160.68182 103.766962 160.657682 103.857417 160.604936 103.857417 160.604936 104.78041 160.498551 105.187019 160.882074 105.324019 161.533795L105.831622 163.594449C106.412994 167.844491 107.145417 171.05929 107.537096 172.954555L107.777724 174.091714C107.806705 174.178431 107.808462 174.325046 107.838321 174.470767 107.869058 174.645989 107.898917 174.79171 107.928776 174.907929L108.017474 175.199371 108.258103 176.277527 109.601756 183.055781C109.707141 183.586813 109.722071 184.22423 109.824821 184.75705 109.909128 185.192424 110.087404 185.525883 110.131314 185.926392 110.184006 186.40736 110.127801 186.960742 110.149756 187.204802 110.283244 188.652177 110.45625 190.981028 110.525628 191.642583 110.569538 192.069018 110.502795 192.473996 110.553731 192.933509 110.697756 193.013074 110.775038 193.927629 110.830365 194.355852 110.915551 195.014724 110.954192 196.176021 111.067481 197.021738L111.099096 197.068226 111.200968 196.893898C111.094705 195.950735 111.232583 195.403611 111.058699 193.936569 110.890962 192.52853 110.923455 187.058187 110.923455 185.548233 110.905013 185.053855 110.92609 184.298431 110.946288 183.258717 110.933994 182.22705 110.963853 181.648636 110.962974 181.506491 110.965609 180.114544 111.019179 179.208035 111.124564 178.788753 111.114904 178.612636 111.070994 178.017237 111.058699 176.985569L110.897109 166.250502C110.918186 165.353827 110.692487 164.825477 110.667019 164.724456 110.690731 164.540293 110.713564 164.209516 110.710929 163.49611L110.702147 161.827919 110.734641 161.818979C110.725859 161.642862 110.657359 161.197654 110.565147 160.828435 110.565147 160.61477 110.657359 160.402894 110.760987 160.237505 110.800506 160.174032 110.80841 160.136484 110.863737 160.080163 111.062212 159.87812 111.306353 159.777099 111.597917 159.777099 111.597917 159.777099 111.844692 159.772629 111.912314 159.804813 111.979058 159.836102 112.750122 159.777099 112.750122 159.777099 112.977577 159.777099 113.140923 159.850406 113.312173 159.972883 113.359596 160.007749 113.442147 160.036357 113.485179 160.080163 113.683654 160.283099 113.782891 160.532523 113.782891 160.828435 113.782891 160.927668 113.782013 161.026901 113.732833 161.126134 113.782013 161.126134 113.781135 161.176198 113.781135 161.275431 113.779378 161.473004 113.7785 161.67147 113.729321 161.820767 113.776744 161.969169 113.775865 162.2177 113.774109 162.465336 113.821532 162.713866 113.820654 162.912332 113.819776 163.010671 113.815385 163.705304 114.092897 167.719332 114.126269 170.496968 114.122756 171.190707 114.119244 171.736936 114.165788 172.083806 114.162276 172.778438 114.159641 173.373837 114.206186 173.820834 114.156128 173.969237 114.106071 174.316106 114.102558 174.861442 114.149981 175.109972 114.088506 175.407671 114.085872 175.853774L114.081481 176.745979C114.077968 177.391442 114.123635 177.887608 114.170179 178.234477 114.120122 178.432944 114.118365 178.779813 114.115731 179.275979L114.169301 180.416714C114.201795 183.14518 114.102558 189.940421 114.073577 194.949463L114.229019 196.842046C114.276442 197.089682 114.274686 197.437445 114.272051 197.883548 114.270295 198.181247 114.269417 198.379714 114.219359 198.528117 114.170179 198.676519 114.168423 198.924156 114.166667 199.321088 114.16491 199.618788 114.202673 199.866424 114.153494 200.015721 114.201795 200.06489 114.200917 200.164124 114.200038 200.313421L114.19916 200.61112C114.149103 200.759523 114.148224 200.858756 114.148224 200.907926L114.147346 201.007159C114.147346 201.156456 114.190378 201.396046 114.141199 201.544449 114.141199 201.842148 114.041962 202.090679 113.843487 202.292721zM93.8441217 196.658777C93.8335833 197.932717 93.7264423 198.959021 93.6728717 200.004993 93.6728717 200.004993 94.6002563 200.175746 94.6863207 200.186473 94.7732627 200.197202 95.3019423 200.207929 95.3019423 200.207929 95.566282 200.261569 95.7911027 200.38941 95.977282 200.591452 96.161705 200.794389 96.255673 201.030403 96.255673 201.299495L96.255673 201.379954C96.255673 201.677654 96.161705 201.919926 95.977282 202.108558 95.7911027 202.297191 95.566282 202.39106 95.3019423 202.39106L92.4346027 202.39106 90.976782 202.455427 89.1553847 202.335633 88.7435063 202.39106 88.4299873 202.39106C88.137545 202.39106 87.8995513 202.297191 87.71425 202.108558 87.5289487 201.919926 87.4367373 201.677654 87.4367373 201.379954L87.4367373 201.299495C87.4367373 201.030403 87.5289487 200.794389 87.71425 200.591452 87.8995513 200.38941 88.12525 200.261569 88.3895897 200.207929 88.3895897 200.207929 88.732968 200.178427 88.8163973 200.220445 88.899827 200.262463 90.0186603 200.004993 90.0186603 200.004993 90.0186603 199.9147 90.0757437 199.616106 90.124923 198.935777 90.1741027 198.209855 90.1784937 197.529527 90.1828847 196.849198L90.295295 190.636841C90.296173 190.45536 90.2988077 190.137993 90.257532 189.683844 90.2601667 189.23059 90.3497437 187.778746 90.3075897 187.460484 90.3532563 187.234304 90.355891 186.916936 90.3576473 186.598675L90.3629167 185.782459 90.3242757 184.96535 90.330423 184.103541 90.2979293 182.243141 90.3655513 180.202156 90.3286667 179.113272 90.304955 176.028102 90.42 172.172311 90.3866283 170.493392 90.4015577 168.270926 90.4103397 167.090855C90.4103397 167.090855 90.3075897 161.845798 90.312859 161.834177 90.3190063 161.821661 90.3760897 161.820767 90.376968 161.808251 90.377846 161.795735 90.4138527 161.794841 90.3752117 161.741202 90.3356923 161.686668 90.0669617 161.687562 90.047641 161.713488 89.9984617 161.776961 88.802346 161.620512 88.802346 161.620512 88.6618333 161.594587 88.480923 161.459594 88.3685127 161.402378 88.2473207 161.340692 88.1963847 161.354102 88.107686 161.256657 87.9346793 161.068025 87.8494937 160.825753 87.8494937 160.528947L87.8494937 160.447594C87.8494937 160.178502 87.941705 159.94964 88.1278847 159.760113 88.3123077 159.572375 88.5380063 159.477611 88.802346 159.477611L89.6375193 159.436488 90.2645577 159.447215C90.2645577 159.447215 90.7273717 159.347982 91.130468 159.351558 91.298205 159.353346 92.1439167 159.42576 93.0159743 159.433806 94.2524873 159.446321 95.5952627 159.315798 95.5952627 159.315798 95.8596027 159.315798 96.0853013 159.410562 96.2706027 159.5983 96.455904 159.787827 96.5489937 160.016689 96.5489937 160.285781L96.5489937 160.367134C96.5489937 160.66394 96.4629293 160.906212 96.2908013 161.094844 96.118673 161.283477 95.886827 161.40506 95.5952627 161.4587 95.5952627 161.4587 94.8531793 161.501611 94.7170577 161.591905 94.580936 161.683092 93.9670707 161.782325 93.9670707 161.782325L93.921404 167.332233C93.892423 170.926085 93.8853973 171.744982 93.9249167 172.427099L93.9161347 173.473965 93.9117437 174.064894 93.9064743 174.702311 93.896814 175.793876 93.891545 176.475993C93.9336987 176.795148 93.9319423 177.067816 93.930186 177.204597L93.9275513 177.522859C93.965314 178.38735 94.0057117 178.933579 94.0478653 179.252735 93.9960513 180.161926 93.990782 180.708156 93.989904 180.844936L93.9881473 181.026417 93.921404 182.709806C93.9626793 183.119254 93.9538973 184.16612 94.029423 185.895102 94.0144937 187.668785 93.8520257 195.703099 93.8441217 196.658777zM75.1163973 202.592208 75.1471347 202.63959C74.8555707 202.63959 74.6114293 202.538569 74.412077 202.336527 74.369923 202.292721 74.331282 202.247127 74.2979103 202.198852 74.198673 202.198852 74.0968013 201.954792 74.0968013 201.406774L74.099436 200.011251 74.3295257 198.467325 74.2821027 196.985085 74.3321603 190.851399 74.3330383 190.702102 74.335673 188.359841C74.3857307 188.210544 74.3857307 187.911056 74.4357883 187.562399L74.4366667 186.764958C74.4366667 186.615661 74.437545 186.516427 74.3883653 186.366237L74.4410577 183.874679 74.49375 183.976594C74.4454487 182.930622 74.4963847 182.183244 74.447205 181.635226L74.447205 181.585163C74.4480833 181.485929 74.4480833 181.385802 74.4972627 181.186442L74.498141 180.837785 74.498141 180.787721C74.4489617 180.538297 74.4498397 180.18964 74.4006603 179.741749L74.4024167 178.39629C74.4524743 178.196929 74.4524743 178.096802 74.4524743 178.046738L74.4524743 177.997569C74.404173 177.250191 74.643923 173.410491 74.5965 172.065032 74.5525897 167.879357 74.3084487 165.211682 74.3593847 164.563537 74.3602627 163.916286 74.3207437 163.218078 74.2724423 162.4707L74.275077 161.075177C74.275077 160.627286 74.3251347 160.278629 74.4735513 160.029205 74.5078013 159.979141 74.6588527 159.939806 74.703641 159.895106 74.9021153 159.692169 75.0347243 159.583102 75.3262883 159.583102 75.3262883 159.583102 75.8874617 159.523205 76.1342373 159.583102 76.1772693 159.593831 76.424923 159.552707 76.8324103 159.556283 76.900032 159.557177 77.0379103 159.498173 77.0466923 159.558071 77.0475707 159.564329 77.02825 159.609028 77.1345127 159.612604 77.195109 159.615286 77.5086283 159.568798 77.5990833 159.570587 78.3877117 159.583996 80.1774937 159.719883 81.6414617 159.719883 82.8955383 159.718989 83.9054743 159.826269 83.9054743 159.826269 84.1970383 159.826269 84.5149487 159.930866 84.713423 160.132908 84.9127757 160.33495 84.9391217 160.580798 84.9391217 160.877604 84.9391217 160.877604 84.8855513 161.492671 84.8855513 161.565085 84.8855513 161.636604 84.9391217 161.969169 84.9391217 161.969169 84.9391217 162.266869 84.9092627 162.641452 84.6545833 162.762141 84.3884873 162.888194 84.1970383 163.020505 83.9054743 163.020505 83.9054743 163.020505 83.5972243 162.974018 83.2652627 162.964184 82.589923 162.943622 81.502705 162.789855 80.517359 162.792537 79.9553077 162.795219 78.9023397 162.763035 78.8680897 162.778233 78.782904 162.814887 78.325359 162.694198 78.081218 162.681682 78.0408207 162.679894 77.931923 162.67453 77.991641 162.708502 78.0522373 162.742473 77.948609 162.778233 77.948609 162.778233L78.1725513 166.751138C78.111077 167.19724 78.167282 167.086385 78.2621283 168.037594L78.248077 168.876159C78.188359 169.154191 78.0759487 169.319579 78.0197437 169.430435L78.0188653 169.486756 78.0654103 169.990074C78.1128333 170.437965 78.2129487 171.053926 78.200654 171.780742 78.197141 172.00424 77.982859 175.696431 78.0109617 177.372668L77.948609 178.612636C77.948609 178.612636 78.5932117 178.643032 78.714404 178.677004 78.835596 178.710975 79.5609937 178.532177 79.7155577 178.532177 79.8701217 178.532177 79.9579423 178.568831 79.9579423 178.568831L81.0987307 178.570618 81.9198527 178.532177C82.2105383 178.532177 82.4555577 178.633198 82.6549103 178.83524 82.8533847 179.037283 82.9526217 179.286707 82.9526217 179.583512L82.9526217 180.244173 82.9174937 180.278145 82.9526217 180.675078C82.9526217 180.835102 82.7796153 181.101512 82.722532 181.233823 82.6733527 181.34736 82.7462437 181.330375 82.6549103 181.42335 82.4555577 181.625392 82.2105383 181.726413 81.9198527 181.726413L80.440077 181.751445 80.2635577 181.71211 79.4116987 181.84889C79.4116987 181.84889 78.67225 181.788099 78.6142883 181.807767 78.4272307 181.87124 78.0864873 181.807767 78.0864873 181.807767 78.0864873 181.807767 77.875718 181.759491 77.8686923 181.828329 77.862545 181.897166 77.948609 181.959746 77.948609 181.959746 77.948609 181.959746 77.910846 190.187163 77.9881283 190.670813 78.0662883 191.154463 78.1216153 196.90105 78.133032 196.983297 78.1444487 197.065544 77.9126027 198.415473 77.948609 198.535269 77.9846153 198.655064 77.769455 199.40423 77.769455 199.40423 77.769455 199.40423 77.78175 199.522237 77.7589167 199.625046 77.7360833 199.728749 78.218218 199.354166 78.4553333 199.401548 78.587064 199.427473 79.8077693 199.658124 80.937141 199.655442 81.8030513 199.653654 82.2957243 199.708187 82.9306667 199.685837 83.488327 199.666169 84.4569873 199.785965 84.4569873 199.785965 84.7485513 199.785965 84.9935707 199.886986 85.192045 200.089922 85.300064 200.199883 85.363295 200.196308 85.4124743 200.333982 85.4344293 200.396562 85.415109 200.492219 85.4300383 200.595028 85.4423333 200.681746 85.4897563 200.775615 85.4897563 200.8373L85.45375 200.897198 85.4897563 201.969989C85.4897563 202.266795 85.2877693 202.539463 85.089295 202.741505 84.8899423 202.943548 84.7485513 203.021325 84.4569873 203.021325 84.1935257 203.068707 83.9362117 202.953382 83.3636217 202.91494 83.3197117 202.91494 83.231891 202.915834 83.1449487 202.961427L82.6610577 202.966792 81.875064 202.863088 75.1163973 202.592208zM56.4106283 202.095148C56.2112757 201.893106 56.1120383 201.644576 56.1120383 201.34777 56.1120383 201.1797 56.114673 200.619166 56.059346 200.34024L56.059346 198.888396C56.114673 198.552254 56.114673 198.273329 56.114673 198.106152 56.059346 197.714583 56.178782 197.155837 56.178782 196.373594L56.3131473 194.977177C56.3131473 194.363004 56.3131473 193.916007 56.2578207 193.525332L56.2578207 192.463269 56.4167757 191.904523 56.4167757 188.441194C56.4167757 188.329445 56.4167757 188.162269 56.362327 187.882449L56.362327 180.720671C56.4167757 180.329102 56.4167757 180.050177 56.4721027 179.770357 56.4167757 179.044435 56.362327 178.430262 56.362327 177.983265L56.362327 174.07294C56.362327 173.79312 56.362327 173.457873 56.307 172.955449L56.307 171.894279 56.148045 169.771046 56.148045 167.760456 56.0136793 166.531215 56.0136793 165.916148 55.8951217 165.078477C55.8951217 164.687802 55.8951217 164.464304 55.9495707 164.297127L55.9495707 161.670576C56.0048973 161.168152 56.0048973 160.777477 56.059346 160.553979 56.114673 160.385908 56.110282 160.231247 56.1647307 160.007749 56.213032 159.859346 56.294705 159.726141 56.4106283 159.609028 56.503718 159.513371 56.6512563 159.515159 56.765423 159.464202 56.8927627 159.40788 56.9911217 159.305071 57.1448077 159.305071 57.1448077 159.305071 57.5988397 159.303283 57.7182757 159.36318 57.8368333 159.423972 60.288782 159.305071 60.288782 159.305071 60.467936 159.305071 60.4451027 159.365862 60.6163527 159.370332 60.8078013 159.374802 60.9579743 159.542873 61.1459103 159.552707 61.8186153 159.58489 62.6704743 159.653728 63.289609 159.761007 63.5864423 159.812859 63.67075 159.867392 63.9052307 159.93623 64.176596 160.015795 64.5937437 160.11324 64.890577 160.215156 65.045141 160.268795 65.1742373 160.271477 65.3208973 160.334056 65.669545 160.481565 65.9839423 160.590633 66.2939487 160.791781 66.5881473 160.983095 66.555654 161.028689 66.8226283 161.276325 67.0026603 161.443502 67.0948717 161.44082 67.3390127 161.667 67.5980833 161.907484 68.008205 162.377724 68.174186 162.581555 69.074346 163.68653 69.8296027 165.135692 70.2660707 166.928148 70.474205 167.781912 70.6076923 169.633371 70.6893653 171.839746 70.735032 173.062728 70.546218 174.908823 70.5198717 176.249813 70.5181153 176.33653 70.3863847 176.406262 70.3855063 176.488509 70.3846283 176.58953 70.4320513 176.658367 70.4320513 176.752237 70.4320513 176.85147 70.4320513 176.946233 70.4338077 177.035633 70.443468 177.85006 70.610327 177.755297 70.610327 178.290798 70.610327 179.251841 70.6990257 186.770321 70.610327 188.830081 70.5646603 189.906449 70.4206347 191.265318 70.388141 192.124445 70.3486217 193.178463 70.2133783 194.127883 70.1923013 194.618685 70.1712243 195.109488 70.264314 195.140777 70.1668333 195.543968 70.0061217 196.213569 70.0078783 196.507692 69.8015 197.074484 69.6829423 197.39811 69.548577 197.560816 69.3799617 197.903215 69.249109 198.169625 68.9382243 198.854424 68.787173 199.138714 68.576404 199.535647 68.521955 199.523131 68.3129423 199.769873 68.0582627 200.072042 67.8510063 200.350074 67.5726153 200.599498 67.2046473 200.929382 67.005295 200.972293 66.5582883 201.210989 66.1657307 201.420184 65.5351793 201.834996 65.0890513 201.974459 64.6921027 202.098724 64.2933973 202.204215 63.8815193 202.290933 63.7076347 202.327587 63.5311153 202.311495 63.3519617 202.340996 63.272045 202.354406 63.19125 202.41788 63.109577 202.430396 62.6458847 202.499233 61.9345383 202.301661 61.4084937 202.328481 61.0703847 202.34636 60.8613717 202.399106 60.4872563 202.399106L59.5598717 202.321329 57.3450383 202.433972 57.1448077 202.399106C56.8532437 202.399106 56.6091027 202.297191 56.4106283 202.095148zM212.229686 202.592208 212.259545 202.63959C211.967981 202.63959 211.72384 202.538569 211.525365 202.336527 211.482333 202.292721 211.443692 202.247127 211.410321 202.198852 211.311962 202.198852 211.209212 201.954792 211.21009 201.406774L211.21009 201.008053 211.210968 200.610226 211.211846 200.011251 211.442814 198.467325 211.394513 196.985085 211.444571 190.851399 211.445449 190.702102 211.447205 189.455876 211.447205 189.206452 211.448083 188.708498 211.448083 188.359841C211.498141 188.210544 211.498141 187.911056 211.548199 187.562399L211.549077 186.764958C211.549955 186.615661 211.549955 186.516427 211.500776 186.366237L211.553468 183.874679 211.60616 183.976594C211.557859 182.930622 211.608795 182.183244 211.559615 181.635226L211.560494 181.585163C211.560494 181.485929 211.560494 181.385802 211.609673 181.186442L211.610551 180.837785 211.610551 180.787721C211.561372 180.538297 211.56225 180.18964 211.513071 179.741749L211.514827 178.744947 211.514827 178.39629C211.564885 178.196929 211.564885 178.096802 211.564885 178.046738L211.564885 177.997569C211.516583 177.250191 211.756333 173.410491 211.70891 172.065032 211.665878 167.879357 211.420859 165.211682 211.471795 164.563537 211.472673 163.916286 211.434032 163.218078 211.384853 162.4707L211.387487 161.075177C211.387487 160.627286 211.437545 160.278629 211.585962 160.029205 211.620212 159.979141 211.771263 159.939806 211.816051 159.895106 212.014526 159.692169 212.147135 159.583102 212.439577 159.583102 212.439577 159.583102 212.999872 159.523205 213.246647 159.583102 213.289679 159.593831 213.537333 159.552707 213.944821 159.556283 214.012442 159.557177 214.151199 159.498173 214.159103 159.558071 214.159981 159.564329 214.14066 159.609028 214.246923 159.612604 214.307519 159.615286 214.621038 159.568798 214.711494 159.570587 215.501 159.583996 217.289904 159.719883 218.753872 159.719883 220.008827 159.718989 221.018763 159.826269 221.018763 159.826269 221.309449 159.826269 221.627359 159.930866 221.826712 160.132908 222.025186 160.33495 222.051532 160.580798 222.051532 160.877604 222.051532 160.877604 221.997962 161.492671 221.997962 161.565085 221.997962 161.636604 222.051532 161.969169 222.051532 161.969169 222.051532 162.266869 222.021673 162.641452 221.766994 162.762141 221.500897 162.888194 221.309449 163.020505 221.018763 163.020505 221.018763 163.020505 220.709635 162.974018 220.377673 162.964184 219.702333 162.943622 218.615115 162.789855 217.629769 162.792537 217.067718 162.795219 216.01475 162.763035 215.9805 162.778233 215.895314 162.814887 215.437769 162.694198 215.194506 162.681682 215.153231 162.679894 215.044333 162.67453 215.104051 162.708502 215.164647 162.742473 215.061019 162.778233 215.061019 162.778233L215.284962 166.751138C215.223487 167.19724 215.279692 167.086385 215.374538 168.037594L215.369269 168.372841 215.360487 168.876159C215.300769 169.154191 215.189237 169.319579 215.132154 169.430435L215.131276 169.486756 215.177821 169.990074C215.225244 170.437965 215.325359 171.053926 215.313064 171.780742 215.309551 172.00424 215.095269 175.696431 215.123372 177.372668L215.061019 178.612636C215.061019 178.612636 215.7065 178.643032 215.826814 178.677004 215.948006 178.710975 216.674282 178.532177 216.828846 178.532177 216.98341 178.532177 217.070353 178.568831 217.070353 178.568831L218.211141 178.570618 219.032263 178.532177C219.322949 178.532177 219.568846 178.633198 219.767321 178.83524 219.965795 179.037283 220.065032 179.286707 220.065032 179.583512L220.065032 180.244173 220.029904 180.278145 220.065032 180.675078C220.065032 180.835102 219.892904 181.101512 219.834942 181.233823 219.785763 181.34736 219.858654 181.330375 219.767321 181.42335 219.568846 181.625392 219.322949 181.726413 219.032263 181.726413L217.552487 181.751445 217.376846 181.71211 216.524109 181.84889C216.524109 181.84889 215.78466 181.788099 215.726699 181.807767 215.539641 181.87124 215.198897 181.807767 215.198897 181.807767 215.198897 181.807767 214.988128 181.759491 214.981103 181.828329 214.974955 181.897166 215.061019 181.959746 215.061019 181.959746 215.061019 181.959746 215.023256 190.187163 215.100538 190.670813 215.178699 191.154463 215.234026 196.90105 215.245442 196.983297 215.257737 197.065544 215.025013 198.415473 215.061019 198.535269 215.097904 198.655064 214.881865 199.40423 214.881865 199.40423 214.881865 199.40423 214.895038 199.522237 214.871327 199.625046 214.848494 199.728749 215.330628 199.354166 215.567744 199.401548 215.699474 199.427473 216.920179 199.658124 218.049551 199.655442 218.915462 199.653654 219.409013 199.708187 220.043077 199.685837 220.600737 199.666169 221.569397 199.785965 221.569397 199.785965 221.860962 199.785965 222.105981 199.886986 222.304455 200.089922 222.412474 200.199883 222.475705 200.196308 222.524885 200.333982 222.54684 200.396562 222.528397 200.492219 222.542449 200.595028 222.554744 200.681746 222.602167 200.775615 222.602167 200.8373L222.56616 200.897198 222.602167 201.969989C222.602167 202.266795 222.400179 202.539463 222.201705 202.741505 222.003231 202.943548 221.860962 203.021325 221.569397 203.021325 221.306814 203.068707 221.048622 202.953382 220.47691 202.91494 220.432122 202.91494 220.345179 202.915834 220.257359 202.961427L219.773468 202.966792 218.987474 202.863088 212.229686 202.592208zM119.97775 202.592208 120.008487 202.63959C119.716923 202.63959 119.471904 202.538569 119.273429 202.336527 119.230397 202.292721 119.192635 202.247127 119.159263 202.198852 119.060026 202.198852 118.957276 201.954792 118.958154 201.406774L118.959032 201.008053 118.959032 200.610226 118.95991 200.011251 119.190878 198.467325 119.143455 196.985085 119.193513 190.851399 119.193513 190.702102 119.195269 189.455876 119.195269 189.206452 119.196147 188.708498 119.197026 188.359841C119.246205 188.210544 119.247083 187.911056 119.297141 187.562399L119.298019 186.764958C119.298019 186.615661 119.298019 186.516427 119.24884 186.366237L119.301532 183.874679 119.355103 183.976594C119.306801 182.930622 119.356859 182.183244 119.308558 181.635226L119.308558 181.585163C119.308558 181.485929 119.308558 181.385802 119.358615 181.186442L119.358615 180.837785 119.359494 180.787721C119.310314 180.538297 119.310314 180.18964 119.262013 179.741749L119.262891 178.744947 119.262891 178.694883 119.263769 178.39629C119.312949 178.196929 119.312949 178.096802 119.313827 178.046738L119.313827 177.997569C119.265526 177.250191 119.505276 173.410491 119.457853 172.065032 119.413942 167.879357 119.169801 165.211682 119.219859 164.563537 119.220737 163.916286 119.182096 163.218078 119.133795 162.4707L119.135551 161.075177C119.136429 160.627286 119.186487 160.278629 119.334904 160.029205 119.369154 159.979141 119.520205 159.939806 119.564115 159.895106 119.763468 159.692169 119.896077 159.583102 120.187641 159.583102 120.187641 159.583102 120.747936 159.523205 120.994712 159.583102 121.037744 159.593831 121.286276 159.552707 121.693763 159.556283 121.761385 159.557177 121.899263 159.498173 121.907167 159.558071 121.908045 159.564329 121.889603 159.609028 121.995865 159.612604 122.056462 159.615286 122.369981 159.568798 122.460436 159.570587 123.249064 159.583996 125.038846 159.719883 126.502814 159.719883 127.756891 159.718989 128.766827 159.826269 128.766827 159.826269 129.058391 159.826269 129.376301 159.930866 129.574776 160.132908 129.77325 160.33495 129.799596 160.580798 129.799596 160.877604 129.799596 160.877604 129.746026 161.492671 129.746026 161.565085 129.746026 161.636604 129.799596 161.969169 129.799596 161.969169 129.799596 162.266869 129.770615 162.641452 129.515936 162.762141 129.24984 162.888194 129.058391 163.020505 128.766827 163.020505 128.766827 163.020505 128.458577 162.974018 128.126615 162.964184 127.451276 162.943622 126.363179 162.789855 125.377833 162.792537 124.81666 162.795219 123.762814 162.763035 123.728564 162.778233 123.644256 162.814887 123.185833 162.694198 122.942571 162.681682 122.901295 162.679894 122.792397 162.67453 122.852994 162.708502 122.912712 162.742473 122.809962 162.778233 122.809962 162.778233L123.033904 166.751138C122.971551 167.19724 123.028635 167.086385 123.122603 168.037594L123.109429 168.876159C123.049712 169.154191 122.937301 169.319579 122.880218 169.430435L122.87934 169.486756 122.926763 169.990074C122.973308 170.437965 123.073423 171.053926 123.062006 171.780742 123.058494 172.00424 122.844212 175.696431 122.871436 177.372668L122.809962 178.612636C122.809962 178.612636 123.454564 178.643032 123.575756 178.677004 123.696949 178.710975 124.422346 178.532177 124.57691 178.532177 124.731474 178.532177 124.819295 178.568831 124.819295 178.568831L125.960083 178.570618 126.780327 178.532177C127.071891 178.532177 127.31691 178.633198 127.515385 178.83524 127.713859 179.037283 127.813974 179.286707 127.813974 179.583512L127.813974 180.244173 127.778846 180.278145 127.813974 180.675078C127.813974 180.835102 127.640968 181.101512 127.583006 181.233823 127.533827 181.34736 127.607596 181.330375 127.515385 181.42335 127.31691 181.625392 127.071891 181.726413 126.780327 181.726413L125.300551 181.751445 125.12491 181.71211 124.272173 181.84889C124.272173 181.84889 123.532724 181.788099 123.475641 181.807767 123.288583 181.87124 122.946962 181.807767 122.946962 181.807767 122.946962 181.807767 122.737071 181.759491 122.730045 181.828329 122.723019 181.897166 122.809962 181.959746 122.809962 181.959746 122.809962 181.959746 122.771321 190.187163 122.849481 190.670813 122.927641 191.154463 122.98209 196.90105 122.994385 196.983297 123.005801 197.065544 122.773077 198.415473 122.809962 198.535269 122.845968 198.655064 122.629929 199.40423 122.629929 199.40423 122.629929 199.40423 122.643103 199.522237 122.620269 199.625046 122.597436 199.728749 123.078692 199.354166 123.316686 199.401548 123.447538 199.427473 124.669122 199.658124 125.797615 199.655442 126.663526 199.653654 127.157077 199.708187 127.792019 199.685837 128.349679 199.666169 129.31834 199.785965 129.31834 199.785965 129.609026 199.785965 129.854045 199.886986 130.053397 200.089922 130.161417 200.199883 130.223769 200.196308 130.272949 200.333982 130.295782 200.396562 130.276462 200.492219 130.291391 200.595028 130.303686 200.681746 130.351109 200.775615 130.351109 200.8373L130.315103 200.897198 130.351109 201.969989C130.351109 202.266795 130.148244 202.539463 129.949769 202.741505 129.751295 202.943548 129.609026 203.021325 129.31834 203.021325 129.054878 203.068707 128.796686 202.953382 128.224974 202.91494 128.181064 202.91494 128.093244 202.915834 128.005423 202.961427L127.521532 202.966792 126.736417 202.863088 119.97775 202.592208zM149.914885 179.533449C149.832333 179.601392 150.090526 179.644304 150.090526 179.644304 150.308321 180.499855 150.530506 181.20611 150.663115 181.660258L151.301571 183.829979C151.983936 186.99829 153.014071 192.357777 153.582269 194.523922 153.624423 194.725071 153.713122 195.02724 153.846609 195.431325 153.930038 195.883685 154.018737 196.185855 154.060891 196.387004L154.717788 198.543315C155.239442 200.607544 155.350974 201.69464 155.531885 202.150576 155.59775 202.42682 155.627609 202.63065 155.552083 202.756703 155.43616 202.948018 155.254372 203.040099 155.0155 203.040099 155.0155 203.040099 153.520795 202.943548 153.486545 203.010597 153.453173 203.077647 153.382917 203.040099 153.382917 203.040099 153.065006 203.040099 152.747096 202.984671 152.464314 202.830905 152.308872 202.745975 152.192949 202.94176 152.07966 202.824647 151.977788 202.719156 151.872404 202.305237 151.832885 202.150576 151.832885 202.150576 150.731615 197.006541 150.198545 195.277558 150.079109 194.891353 149.999192 193.985738 149.699724 192.756498 149.63825 192.503498 149.414308 192.202223 149.348442 191.927767 149.299263 191.724831 149.249205 191.51653 149.198269 191.304654 148.15584 186.94465 146.735782 180.726035 146.735782 180.726035 146.636545 180.372908 146.578583 180.159244 146.592635 179.835618 146.605808 179.511993 146.678699 179.306375 146.787596 178.986325 146.836776 178.825406 146.832385 178.851332 146.878929 178.529495 146.92284 178.100378 147.022955 177.831286 147.072135 177.670367 147.270609 177.07765 147.518263 176.271269 147.762404 175.303968L148.982231 169.712042C149.22725 168.798382 149.368641 167.940148 149.562724 167.133767L149.909615 166.004654C150.001827 165.360979 150.101064 165.038247 150.099308 164.984608 150.692096 162.994579 151.347237 160.242869 151.339333 159.814647 151.390269 159.617968 151.476333 159.371226 151.648462 159.282721 151.955833 159.126272 152.509103 158.965353 152.983333 158.965353 152.983333 158.965353 153.475128 158.945685 153.51816 158.965353 153.560314 158.985021 154.275173 158.965353 154.275173 158.965353 154.486821 158.965353 154.644897 159.061011 154.752038 159.248749 154.835468 159.39447 154.781897 159.569692 154.712519 159.814647 154.714276 159.862922 154.584301 160.109664 154.372654 160.649636 154.212821 161.282583 153.832558 163.62395 153.600712 164.742336 153.368865 165.859827 153.236256 166.059187 153.042173 166.982682 152.848968 167.907071 152.606583 168.784972 152.358929 169.567215L150.974 176.396427C150.782551 177.368198 150.293391 178.461551 150.037833 179.440473L149.957917 179.44405C149.957917 179.44405 149.933327 179.519145 149.914885 179.533449zM146.334442 198.285844 146.28175 200.774721C146.28175 201.072421 146.01741 201.458625 145.818936 201.660668 145.620462 201.86271 145.539667 201.826056 145.248981 201.826056 145.248981 201.826056 143.821019 201.763477 143.753397 201.784933 143.685776 201.807283 143.659429 201.826056 143.659429 201.826056 143.120212 201.767947 142.667058 201.597194 142.620513 201.396046 142.669692 201.39694 142.71975 201.34777 142.721506 201.247643 142.722385 201.147516 142.676718 200.946367 142.631051 200.69605L142.689891 198.793633C142.707455 197.643958 142.813718 190.608233 142.801423 188.156905 142.789128 185.754746 142.895391 184.561265 142.912955 183.410696L142.917346 183.110315 142.928763 182.360254 142.934032 182.059873 143.007801 181.109558 143.012192 180.809177 143.015705 180.558859 143.020974 180.258477C142.972673 180.15835 142.975308 180.008159 142.977942 179.807905L142.987603 179.208035 142.990237 179.007781 142.942814 178.90676C142.943692 178.856696 142.99375 178.807527 143.042929 178.758357 143.002532 178.207657 142.899782 177.806254 142.903295 177.556831L142.940179 175.154671 142.916468 173.453403 142.924372 172.903597 142.891878 171.802198 142.827769 170.80182C142.83216 170.551502 142.834795 170.351247 142.78825 170.200163L142.795276 169.750484 142.802301 169.249848 142.810205 168.750106 142.722385 166.047565 142.746096 164.497382 142.639833 162.995473C142.645981 162.594965 142.649494 162.345541 142.702186 162.14618L142.703064 162.046053 142.708333 161.695608C142.661788 161.544523 142.663545 161.44529 142.663545 161.44529 142.664423 161.344269 142.666179 161.245035 142.715359 161.245929 142.720628 160.895484 142.674962 160.694336 142.62666 160.594208 142.62666 160.435972 142.842699 160.09536 142.898026 159.963944 142.948083 159.848618 142.83216 159.9407 142.92525 159.845936 143.123724 159.643894 143.373135 159.522311 143.664699 159.522311 143.664699 159.522311 143.696314 159.509795 143.733199 159.537509 143.769205 159.565223 143.979096 159.574163 143.979096 159.574163L145.248981 159.542873C145.539667 159.542873 145.785564 159.643894 145.984038 159.845936 146.041122 159.904046 146.015654 159.921032 146.056051 159.986293 146.157045 160.149894 146.28175 160.382332 146.28175 160.594208 146.329173 160.692548 146.326538 160.774795 146.324782 160.92141L146.273846 161.361254 146.28175 164.197894C146.276481 164.882692 146.272968 165.372601 146.317756 165.715L146.258917 167.035427C146.301071 167.77029 146.424019 168.357643 146.419628 168.895827L146.370449 172.955449C146.415237 173.396187 146.411724 173.786862 146.409968 174.031816 146.450365 175.010738 146.391526 176.331166 146.425776 177.994887L146.398551 181.370604 146.398551 181.419774 146.37484 185.754746 146.401186 188.445664 146.345859 189.325353C146.391526 189.668647 146.388891 189.961876 146.388013 190.109385L146.30634 190.402615C146.352885 190.54923 146.351128 190.745014 146.349372 190.989968L146.296679 191.576427 146.294045 191.869657 146.289654 192.408735C146.336199 192.604519 146.335321 198.237569 146.334442 198.285844zM169.771981 151.708813C169.989776 152.029756 170.155756 152.555424 170.155756 152.979177 170.155756 153.342138 169.976603 153.658611 169.837846 153.963463 169.771981 154.107396 169.692942 154.235237 169.59634 154.366654 169.518179 154.471251 169.475147 154.720675 169.436506 154.852986 169.379423 155.04877 168.993013 154.993343 168.813859 155.099728 168.471359 155.302664 168.215801 155.401004 167.816218 155.401004 167.207622 155.401004 166.569167 155.174823 166.220519 154.6277 165.859577 154.060908 165.475801 153.651459 165.475801 152.979177 165.475801 152.306 165.713795 151.733844 166.189782 151.26271 166.248622 151.205495 166.419872 151.242148 166.480468 151.191191 166.579705 151.10805 166.610442 151.110731 166.706167 151.039212 166.727244 151.02312 166.678942 150.991831 166.700897 150.976633 166.737782 150.949813 166.788718 150.942661 166.829115 150.916735 167.121558 150.728996 167.478109 150.556456 167.816218 150.556456 168.303622 150.556456 168.604846 150.610095 168.982474 150.932827 169.075564 151.012392 169.249449 151.248406 169.343417 151.341382 169.519936 151.51571 169.643763 151.521074 169.771981 151.708813zM164.144442 151.726692C164.330622 152.068198 164.603744 152.558106 164.603744 152.979177 164.603744 153.242011 164.547538 153.461039 164.474647 153.693477 164.427224 153.84635 164.329744 154.001011 164.303397 154.160141 164.270904 154.358608 164.034667 154.464099 163.866929 154.629488 163.807212 154.687597 163.800186 154.555286 163.73959 154.608032 163.312782 154.981721 162.850846 154.910202 162.318654 154.910202 162.264205 155.136382 161.878673 155.458219 161.623115 155.401004 161.473821 155.367926 161.289397 155.182869 161.105853 155.040724 161.025936 154.978145 160.919673 154.972781 160.844147 154.921823 160.758083 154.86282 160.703635 154.760011 160.637769 154.694749 160.583321 154.640215 160.502526 154.360396 160.454224 154.30318 160.080987 153.866018 159.923788 153.574576 159.923788 152.979177 159.923788 152.306 160.302295 151.894763 160.677288 151.336912 161.028571 150.81482 161.655609 150.556456 162.264205 150.556456 162.871923 150.556456 163.413776 150.79247 163.889763 151.26271 164.068038 151.439721 164.03291 151.521968 164.144442 151.726692zM158.520417 171.834382 158.783878 160.68182C158.783878 160.344785 158.761923 160.169562 158.921756 159.939806 158.986744 159.845936 159.027141 159.825375 159.124622 159.747597 159.266891 159.635848 159.671744 159.626014 159.616417 159.485657 159.616417 159.485657 159.821038 159.458837 159.951013 159.485657 160.02566 159.500855 160.599128 159.524099 161.031205 159.519629 161.35175 159.516053 161.571301 159.485657 161.571301 159.485657 161.73816 159.485657 161.825981 159.533039 161.955077 159.648364 162.007769 159.695746 162.117545 159.763689 162.16409 159.830738 162.323923 160.060495 162.435455 160.012219 162.40384 160.68182L162.244885 162.198032 162.281769 162.510035 162.188679 163.462138 162.165846 165.686392C162.165846 165.955484 162.059583 166.385495 162.006891 166.977318 162.059583 167.514608 162.059583 167.945512 162.059583 168.21371 162.059583 168.482802 162.059583 168.912813 162.006891 169.504636 161.954199 170.096459 161.87516 170.58011 161.927853 170.902841L161.927853 171.279212C161.927853 171.441025 161.888333 171.763756 161.941026 172.140127L161.888333 173.000148 161.888333 173.430159 161.874282 185.302385C161.980545 187.291519 161.663513 189.206452 161.768897 190.442844 161.82159 191.25012 161.716205 192.971056 161.768897 193.670159 161.768897 194.83682 161.652974 195.960569 161.730256 196.806286 161.755724 197.081636 161.775923 197.56171 161.876917 198.087378 161.947173 198.447657 161.87516 198.599636 162.048167 198.952763 162.277378 199.41764 162.641833 199.87447 163.215301 200.192731 163.534968 200.370636 163.807212 200.419806 164.21909 200.436792 164.722301 200.436792 165.299282 200.204353 165.650564 200.180215 166.164314 199.981749 166.251256 199.687625 166.702654 199.315724 167.502699 198.655958 167.715224 197.957749 168.083192 197.272056 168.179795 196.03477 168.189455 195.187265 168.229853 193.466329L168.203506 189.862643 168.194724 188.787169 168.237756 187.388965 168.223705 185.50711 168.327333 184.147346 168.125346 183.463442 168.200872 182.060767C168.187699 180.339831 168.174526 175.390685 168.099 172.325184 168.084071 170.22877 168.019083 168.669647 168.011179 167.53964 168.006788 167.00235 168.004154 166.572339 168.054212 166.248714 168.045429 165.012321 167.959365 162.738898 168.056846 161.60889 168.056846 161.380922 168.010301 161.243247 168.083192 161.064449 168.118321 160.978625 168.24566 160.832011 168.296596 160.757809 168.356314 160.67288 168.546006 160.580798 168.614506 160.527159 168.733064 160.435972 168.740968 160.412728 168.889385 160.412728 168.889385 160.412728 169.165141 160.486929 169.323218 160.535205 169.391718 160.556661 169.328487 160.651424 169.64991 160.621922 169.645519 160.579011 169.606 160.487823 169.707872 160.461004 170.039833 160.371604 170.871494 160.412728 170.871494 160.412728 170.997955 160.412728 171.165692 160.519113 171.270199 160.586163 171.360654 160.643378 171.390513 160.651424 171.464282 160.757809 171.53366 160.857936 171.585474 160.814131 171.624994 160.93482 171.675929 161.091269 171.704032 161.41847 171.704032 161.60889 171.804147 161.87977 171.810295 170.124173 171.831372 171.738724 171.828737 171.899643 171.803269 172.493254 171.782192 173.568728L171.774288 173.998738 171.757603 174.859654C171.749699 175.236025 171.585474 175.504223 171.635532 175.666929 171.630263 175.936021 171.742673 176.258753 171.786583 176.743297L171.777801 177.173308C171.775167 177.33512 171.768141 177.656958 171.813808 178.035117L171.743551 178.947883C171.792731 179.11059 171.786583 179.432427 171.83225 179.810587L171.815564 180.670608 171.727744 182.44429C171.694372 184.164332 171.71984 185.890633 171.698763 186.966106 171.689981 187.396117 171.683833 187.718848 171.624115 188.039792L171.743551 190.083459C171.790974 190.353445 171.782192 190.783456 171.717205 191.428025L171.705788 192.018954 171.622359 198.545102 171.68559 199.037692 171.681199 201.656198C171.681199 202.018265 171.595135 202.321329 171.423885 202.568071 171.371192 202.64406 171.317622 202.660152 171.257904 202.712898 171.121782 202.830905 170.963705 202.93729 170.789821 202.93729 170.789821 202.93729 170.509673 202.905106 170.466641 202.93729 170.423609 202.970367 170.240942 202.93729 170.240942 202.93729 170.102186 202.93729 169.895808 202.914046 169.768468 202.844315 169.663083 202.787993 169.635859 202.695912 169.538378 202.592208 169.43475 202.484035 169.405769 202.335633 169.34166 202.197064 169.270526 202.043297 169.167776 201.895788 169.144064 201.705367 169.144064 201.705367 169.026385 201.574844 169.057122 201.42376 169.088737 201.272675 168.810346 200.278555 168.810346 200.278555 168.810346 200.278555 169.000917 200.142668 169.008821 200.058633 169.013212 199.990689 168.977205 199.880728 168.977205 199.880728 168.682128 200.304481 168.462577 200.623636 168.104269 201.013417 167.710833 201.440746 167.237481 202.063859 166.768519 202.449169 166.58234 202.602042 166.494519 202.782629 166.240718 202.94623 166.487494 203.09195 165.762096 203.238565 165.563622 203.324389 165.243955 203.462958 165.227269 203.399484 164.877744 203.464746 164.563346 203.523749 164.237532 203.553251 163.899423 203.553251 163.130994 203.553251 162.372224 203.513021 161.646827 203.191184 160.920551 202.869346 160.267167 202.239081 159.712141 201.487233 159.605 201.341512 159.461853 201.235127 159.376667 201.050965 159.291481 200.866802 159.264256 200.604862 159.178192 200.43411 158.904192 199.893244 158.631071 199.382774 158.422058 198.620198 158.354436 198.37435 158.253442 198.074862 158.206897 197.803982 158.125224 196.708841 158.148936 195.317788 158.148936 193.840912L158.128737 192.765438 158.098 191.429813C158.118199 191.273364 158.153327 191.012318 158.150692 190.639523L158.114686 189.729438C158.112051 189.356643 158.144545 188.503774 158.115564 187.541837L158.379026 178.38288C158.357071 177.369092 158.358827 176.570756 158.391321 175.936021 158.27891 175.601668 158.441378 175.176127 158.51866 174.60129 158.525686 174.549438 158.538859 174.444841 158.610872 174.29465L158.653026 173.980859C158.63634 173.712661 158.573109 173.01177 158.520417 171.834382zM189.303263 199.509721C189.302385 199.769873 189.260231 199.952247 189.15309 200.14088 188.637583 200.991961 187.451128 201.789403 186.643179 202.256961 186.270821 202.472413 185.663103 202.562707 185.249468 202.678926 184.767333 202.814813 184.472256 202.958746 183.933917 202.958746 183.20325 202.958746 182.065974 202.89259 181.432788 202.695912 180.763596 202.488505 180.582686 202.08889 180.094404 201.657092 179.981115 201.556965 179.758051 201.545343 179.642128 201.435382 178.806077 200.640622 178.033256 199.489159 177.447494 198.073968 176.927596 196.819696 176.824846 195.343714 176.506058 193.644233 176.424385 193.211541 176.356763 192.673357 176.34359 192.206692 176.321635 191.436071 176.07925 190.792396 176.002846 189.982438 175.828083 188.115781 175.620827 183.580555 175.620827 181.323223 175.620827 179.646986 175.484705 176.440233 175.584821 174.945477 175.663859 173.777028 175.482949 174.001421 175.622583 172.944721 175.730603 172.132975 175.857942 168.889569 176.006359 168.160965 176.152141 167.443982 176.613199 166.536579 176.7985 165.900056 176.984679 165.263534 176.975019 164.898785 177.200718 164.343615 177.382506 163.895724 177.634551 163.285127 177.844442 162.892664 178.163231 162.297265 178.505731 162.010293 178.907071 161.594587 179.229372 161.261127 179.599974 160.778371 179.9495 160.485141 180.280583 160.20711 180.7715 159.761901 181.147372 159.569692 181.986058 159.140576 182.876558 159.418608 183.933917 159.418608 184.408147 159.418608 184.901699 159.477611 185.388224 159.592936 185.834353 159.698427 186.199686 159.948746 186.614199 160.147212 187.146391 160.402 187.808558 160.64159 188.237122 161.012597 188.514635 161.253081 188.611237 161.579389 188.793026 161.895862 188.935295 162.147968 188.958128 162.205184 188.964276 162.485898 188.967788 162.662014 188.91334 162.738898 188.823763 162.866738 188.823763 162.866738 188.439109 163.381679 188.377635 163.539021 188.317038 163.69547 188.092218 163.969032 188.092218 163.969032 187.900769 164.257792 187.686487 164.42318 187.449372 164.46341 187.362429 164.477714 187.281635 164.354343 187.207865 164.330205 187.079647 164.287293 186.97075 164.304279 186.881173 164.145148 186.521109 163.587297 186.160167 163.242215 185.639391 162.97223 185.118615 162.702244 184.550417 162.567251 183.933917 162.567251 183.331468 162.567251 182.654372 162.69688 182.113397 162.786279 181.796365 163.073251 181.411712 163.631996 181.135077 164.145148 180.186615 165.907208 179.662327 171.879975 179.447167 177.377138 179.436628 177.649806 179.333 177.875092 179.325096 178.159382 179.318949 178.374834 179.418186 178.487477 179.413795 178.710081 179.397109 179.469081 179.627199 180.267417 179.627199 181.10777 179.627199 185.286293 179.888026 191.268 180.325372 193.941039 180.397385 194.382671 180.688949 194.824304 180.777647 195.219449 180.895327 195.744223 180.739006 196.204629 180.890058 196.644473 181.218506 197.60641 181.385365 198.528117 181.893846 199.059148 182.469949 199.6617 183.176904 199.809208 184.029641 199.809208 184.527583 199.809208 184.70059 199.677792 185.123885 199.496311 185.296013 199.42211 185.750923 199.373834 185.910756 199.270131 186.463147 198.910746 186.886442 198.57818 187.252654 197.945233 187.394923 197.693127 187.582859 197.578696 187.815583 197.600152 188.048308 197.623396 188.223071 197.794148 188.452282 198.06771L188.475115 198.176777 188.918609 198.544208C189.028385 198.671156 189.144308 198.766813 189.20666 198.860682 189.276038 198.965279 189.288333 199.068088 189.311167 199.195929 189.328731 199.288905 189.304141 199.423898 189.303263 199.509721zM202.661641 180.95311C202.078513 180.972777 201.653462 181.149788 201.386487 181.105088L199.261231 181.122074 198.730795 181.194488C198.094974 181.215944 197.615474 181.232035 197.294051 181.13459L197.028833 181.198064C196.869 181.203427 196.622224 181.320541 196.198929 181.389378 196.201564 181.842633 196.21825 182.205594 196.264795 182.432668L196.268308 183.15859 196.270942 183.611844 196.273577 184.156286C196.276212 184.656028 196.240205 188.808625 196.211224 191.757908L196.217372 193.737208C196.221763 194.508724 196.013628 195.597608 195.976744 197.095046 195.939859 198.592484 195.838865 200.599498 195.842378 201.325421 195.845013 201.733975 195.83184 202.055813 195.877506 202.418774 195.877506 202.509961 195.876628 202.620816 195.852917 202.695018 195.813397 202.819283 195.732603 202.89706 195.650051 203.008809 195.620192 203.048145 195.616679 203.128604 195.580673 203.166152 195.382199 203.3673 195.137179 203.468321 194.846494 203.468321 194.846494 203.468321 193.739077 203.448654 193.506353 203.530007 193.27275 203.61136 192.982942 203.528219 192.982942 203.528219 192.691378 203.528219 192.72475 203.3673 192.527154 203.166152 192.328679 202.96411 192.229442 202.715579 192.229442 202.418774L192.238224 201.350452 192.238224 201.302177C192.238224 201.15735 192.392788 199.996053 192.440212 199.658124 192.440212 199.561573 192.440212 199.416746 192.392788 199.175367L192.392788 198.741781 192.345365 198.548679 192.345365 197.149579C192.392788 197.004753 192.392788 196.715099 192.392788 196.378064L192.607071 195.702205 192.607071 191.713208C192.654494 190.02535 192.654494 186.199954 192.654494 185.090509L192.654494 180.652728C192.654494 180.363074 192.701917 179.881212 192.74934 179.253629 192.74934 179.060527 192.74934 178.771767 192.701917 178.337286 192.654494 177.951081 192.654494 177.662321 192.654494 177.420944L192.607071 175.442537 192.559647 173.416749 192.451628 172.065926 192.404205 171.29441 192.404205 170.956481C192.404205 170.619445 192.451628 168.134145 192.499051 167.844491 192.499051 167.700558 192.499051 167.362629 192.451628 166.928148 192.451628 166.494562 192.291795 166.156633 192.244372 165.915254L192.244372 164.487548 192.196949 163.859965 192.196949 163.185C192.196949 162.895346 192.196949 162.702244 192.149526 162.605692 192.149526 162.557417 192.149526 162.41259 192.244372 162.219488 192.244372 162.075555 192.291795 161.930728 192.291795 161.834177 192.291795 161.785901 192.291795 161.737625 192.244372 161.737625L192.244372 161.592798C192.291795 161.496247 192.339218 161.399696 192.339218 161.351421L192.339218 161.303145 192.283013 161.013491C192.283013 160.718473 192.38225 160.46905 192.580724 160.267007 192.675571 160.170456 192.730019 160.177608 192.845942 160.127544 192.906538 160.101618 192.973282 160.015795 193.052321 159.982717 193.137506 159.946958 193.206006 159.9407 193.285045 159.9407L194.136904 159.985399 194.723545 159.964837C194.955391 159.964837 195.235538 160.029205 195.408545 160.157046 195.453333 160.190124 195.576282 160.432396 195.615801 160.473519 195.814276 160.675562 195.754558 160.718473 195.754558 161.013491 195.803737 161.315661 195.832718 161.717064 195.832718 162.169424 195.882776 162.621785 195.882776 162.92306 195.882776 163.023187L195.882776 163.274399C195.783538 164.580523 196.178731 169.578837 196.129551 174.300908 196.080372 174.703205 196.080372 175.004481 196.080372 175.255692 196.080372 175.456841 196.080372 175.708053 196.129551 175.958371 196.178731 176.209583 196.22791 176.61188 196.22791 177.06424L196.198929 178.119152 196.828603 178.033329 197.352891 177.952869C197.618109 177.993099 197.880692 177.925156 198.143276 177.91264 198.460308 177.950187 198.722891 177.883138 198.88009 177.875092L201.87916 177.559512 202.668667 177.246615 202.66691 177.233205C202.709942 177.039208 202.700282 177.234993 202.695013 176.994509 202.694135 176.946233 202.692378 176.849682 202.641442 176.706643L202.629147 176.129124C202.620365 175.744707 202.612462 175.850198 202.650224 175.416611 202.688865 175.030406 202.679205 174.597714 202.669545 174.164127L202.655494 173.49095 202.673058 172.142809 202.66691 171.85405 202.601045 171.03694 202.594897 170.74818C202.637929 170.555078 202.63266 168.167223 202.625635 167.830187 202.617731 167.494046 202.612462 167.253562 202.65725 167.107841 202.601923 166.772594 202.596654 166.531215 202.594019 166.387283 202.586115 166.050247 202.579968 165.761488 202.621244 165.471834L202.616853 165.443226 202.601923 164.77005 202.587872 164.095979 202.580846 163.807219C202.623 163.565841 202.61334 163.133148 202.597532 162.410802 202.629147 161.688456 202.619487 161.255763 202.661641 161.013491 202.661641 160.801615 202.604558 160.714004 202.707308 160.549509 202.746827 160.485141 202.903147 160.324223 202.959353 160.267007 202.998872 160.226777 203.047173 160.219625 203.090205 160.187442 203.263212 160.058707 203.459929 159.964837 203.692654 159.964837 203.692654 159.964837 204.23275 159.950534 204.304763 159.92729 204.377654 159.904046 205.279571 159.964837 205.279571 159.964837 205.569378 159.964837 205.539519 160.014007 205.737994 160.215156 205.93559 160.417198 206.310583 160.718473 206.310583 161.013491 206.269308 161.549887 206.235936 162.570827 206.256135 164.078993L206.257013 164.127269C206.257013 164.175544 206.259647 164.322159 206.213103 164.468774L206.220128 164.954212 206.221006 165.003382 206.224519 165.294823 206.232423 165.715 206.234179 165.860721C206.236814 166.006442 206.238571 166.152163 206.192904 166.298777L206.244718 166.590219 206.246474 166.73594C206.248231 166.881661 206.250865 167.076551 206.206077 167.319717L206.215737 168.00094 206.21925 170.391477 206.255256 173.06541 206.302679 180.117226 206.302679 180.165502C206.310583 180.749279 206.326391 181.867664 206.300923 183.521551L206.353615 189.934163 206.358006 190.274774C206.360641 190.420495 206.363276 190.663661 206.320244 191.004272L206.330782 191.78294 206.335173 192.074382 206.337808 192.317548C206.343955 192.755604 206.350981 193.290212 206.31234 193.923159L206.383474 195.672703C206.338686 195.916763 206.343077 196.208205 206.347468 196.548816L206.35625 197.180869 206.304436 201.109074 206.310583 201.506901C206.310583 201.739339 206.257891 201.827844 206.135821 202.002173 206.102449 202.049555 206.054147 202.271265 206.011994 202.315071 205.813519 202.517113 205.569378 202.556449 205.279571 202.556449L203.692654 202.556449C203.507353 202.556449 203.384404 202.514431 203.236865 202.433078 203.152558 202.38659 203.031365 202.327587 202.959353 202.254279L202.871532 202.236399C202.843429 202.177396 202.788981 202.112134 202.768782 202.045085 202.723115 201.894894 202.723115 201.725035 202.693256 201.530145L202.70116 200.685321 202.705551 200.121212C202.708186 199.886986 202.713455 198.654169 202.767026 197.762859 202.821474 196.870654 202.8285 196.1197 202.833769 195.462615 202.841673 194.664279 202.802154 193.912431 202.762635 193.114095L202.777564 191.517424C202.779321 191.329685 202.781955 191.048078 202.738923 190.672601 202.695891 190.343611 202.698526 190.06111 202.699404 189.920753L202.712577 188.51182 202.692378 183.126406 202.696769 182.610573C202.698526 182.469321 202.700282 182.281583 202.656372 181.999081L202.661641 180.95311zM60.6462117 162.419742 59.7671283 162.419742C59.7671283 162.419742 59.69775 162.423318 59.6995063 162.495731 59.7012627 162.552053 59.775032 162.673636 59.7671283 162.712972 59.748686 162.801477 59.7671283 163.648088 59.7671283 163.648088L59.7671283 164.374905C59.7671283 164.48576 59.7671283 164.653831 59.7118013 164.877329L59.7118013 165.491502C59.7118013 165.993926 59.886564 166.440922 59.9410127 166.720742L60.0753783 167.391237C60.0753783 167.670163 60.0753783 167.949982 60.0200513 168.117159 60.0753783 168.173481 60.0753783 168.284336 60.0753783 168.507834 60.0753783 168.843081 60.0200513 169.122901 59.9656027 169.290972L59.9656027 169.681647C60.0200513 169.848823 60.0200513 169.960573 60.0200513 170.016894L60.0200513 170.687389C60.0200513 170.742816 60.0200513 170.798244 59.9656027 170.966315L59.9656027 171.636809C60.0200513 171.803986 60.1790063 171.860308 60.1790063 171.915735L60.1790063 179.233961C60.1790063 179.512887 60.1790063 179.680958 60.2343333 179.848134L60.2343333 180.6867C60.2343333 181.077375 60.2343333 181.300873 60.1790063 181.46805 60.2343333 181.63612 60.2343333 187.346053 60.2343333 187.736728L60.2343333 192.038622C60.2343333 192.597367 60.0753783 193.044364 60.129827 193.32329 60.0753783 193.770286 60.0200513 194.160961 60.0200513 194.440781L60.0200513 194.831456 59.886564 196.227873 59.7671283 197.457113C59.7671283 198.07218 59.821577 198.812406 59.7671283 199.203975L60.567173 199.203975C61.1898207 199.203975 61.6991793 199.43105 62.1663847 199.35059 62.6924293 199.260297 63.242186 199.05289 63.6988527 198.860682 64.0448653 198.714067 64.2117243 198.718537 64.4786987 198.511131 64.8747693 198.203597 65.331436 197.641276 65.631782 197.141534 65.8522117 196.77589 65.8996347 196.378958 66.0357563 195.849714 66.1683653 195.334774 66.3905513 194.690205 66.4774937 194.134141 66.505596 193.955343 66.504718 193.950873 66.5319423 193.764922 66.560923 193.56735 66.491545 193.581654 66.5126217 193.093534 66.555654 192.072594 66.7128527 183.126406 66.7523717 181.601254 66.8103333 179.355544 66.6654293 178.908548 66.697045 178.887092 66.7602757 178.84418 66.6399617 178.348908 66.6399617 178.13882 66.6399617 178.065512 66.7462243 178.064618 66.7462243 177.981477 66.748859 175.977145 66.906936 170.990452 66.7769617 168.955724 66.761154 168.702724 66.6908973 168.510516 66.671577 168.363901 66.624154 168.01435 66.505596 167.309883 66.5196473 166.967484 66.560045 166.006442 66.1762693 165.580007 65.810936 164.94706 65.5984103 164.579629 65.4166217 164.278353 65.1672117 164.031611 64.8984807 163.765202 64.3583847 163.561371 63.9886603 163.369163 63.9087437 163.328039 63.803359 163.226124 63.718173 163.187682 63.4634937 163.074145 63.7234423 163.076827 63.452077 162.997262 62.8197693 162.813099 61.5911603 162.419742 60.6462117 162.419742zM111.526782 108.892809C115.482218 108.892809 119.442045 108.892809 123.397481 108.888339 123.799699 108.888339 124.20016 108.866883 124.597987 108.827548 126.04966 108.684509 127.012173 107.905841 127.132487 106.443269 127.279147 104.757198 127.294077 103.040731 127.158833 101.351979 127.036763 99.8160988 126.191051 99.0830246 124.724449 98.8514806 124.403026 98.8058869 124.083359 98.7799611 123.756667 98.7799611 116.361301 98.7763853 108.972083 98.7763853 101.57584 98.7799611 101.254417 98.7799611 100.929481 98.801417 100.603667 98.8407527 99.1853653 99.0141873 98.349314 99.8304028 98.1367883 101.269731 98.0674103 101.72388 98.044577 102.18518 98.044577 102.639329 98.0384293 115.084604 98.0384293 127.52988 98.0384293 139.975156 98.0384293 140.311297 98.044577 140.657272 98.0630193 141.004141 98.1552307 142.576675 98.9175127 143.526989 100.366551 143.811279 100.745936 143.886375 101.139372 143.91677 101.523147 143.91677 109.528865 143.92124 117.532827 143.92124 125.535032 143.91677 125.924077 143.91677 126.307853 143.886375 126.69075 143.841675 128.057237 143.669134 128.917 142.916392 129.09791 141.528021 129.331513 139.726625 129.340295 137.901986 129.076833 136.101484 128.902949 134.874032 128.076558 134.118608 126.872538 133.924611 126.418506 133.855774 125.957449 133.826272 125.496391 133.826272 120.812045 133.821802 116.129455 133.821802 111.4495 133.821802L110.991955 133.821802 110.991955 126.144191 111.45916 126.144191C114.777897 126.144191 118.101026 126.149555 121.418885 126.144191 121.857987 126.139721 122.294455 126.114689 122.72741 126.069989 124.136051 125.907283 125.078365 125.109841 125.186385 123.68571 125.311968 122.048809 125.307577 120.3833 125.180237 118.744611 125.078365 117.36965 124.203673 116.603498 122.866167 116.385364 122.547378 116.337088 122.220686 116.312056 121.896628 116.305798 118.397859 116.302223 114.903481 116.305798 111.409981 116.305798L110.977904 116.305798 110.977904 108.892809 111.526782 108.892809 111.526782 108.892809 111.526782 108.892809zM204.468987 108.892809 216.386231 108.892809C216.818308 108.888339 217.25741 108.873141 217.694756 108.832018 219.041045 108.72295 219.847237 108.046198 220.108942 106.78835 220.178321 106.456679 220.206423 106.107127 220.212571 105.770986 220.221353 104.499728 220.225744 103.22847 220.206423 101.956318 220.202032 101.532565 220.148462 101.096297 220.051859 100.67612 219.837577 99.7910671 219.289577 99.191198 218.409615 98.9846854 217.913429 98.8657845 217.399679 98.7871131 216.889442 98.7871131 209.401865 98.7719151 201.908141 98.7763853 194.415295 98.7799611 194.075429 98.7799611 193.745224 98.801417 193.403603 98.8407527 192.077513 98.9998833 191.348603 99.6757421 191.118513 101.006898 191.039474 101.442272 191.000833 101.893738 191.000833 102.338053 190.994686 114.931731 190.994686 127.52988 191.000833 140.127134 191.000833 140.542841 191.018397 140.963912 191.057038 141.384088 191.17384 142.789445 191.908897 143.614601 193.240256 143.832735 193.599442 143.886375 193.963897 143.91677 194.323083 143.91677 202.452628 143.92124 210.581295 143.92124 218.711718 143.91677 219.099006 143.91677 219.488051 143.886375 219.871827 143.837205 221.164545 143.660194 221.994449 142.952152 222.068218 141.641558 222.170968 139.788311 222.159551 137.912714 222.058558 136.052315 221.994449 134.834696 221.188256 134.11235 220.001801 133.924611 219.564455 133.855774 219.113058 133.826272 218.666051 133.826272 213.894763 133.821802 209.125231 133.821802 204.356577 133.826272 204.043058 133.826272 203.919231 133.772633 203.9245 133.415035 203.938551 131.126413 203.935038 128.83511 203.935038 126.550064 203.935038 126.431163 203.949968 126.302427 203.95875 126.144191L204.425955 126.144191C207.782455 126.144191 211.145103 126.149555 214.502481 126.144191 214.952122 126.139721 215.400885 126.114689 215.847891 126.069989 217.184519 125.926056 218.067994 125.195664 218.156692 123.894905 218.277885 122.237442 218.219045 120.570145 218.225192 118.91 218.225192 118.680244 218.161083 118.454064 218.108391 118.235035 217.890596 117.355346 217.373333 116.731339 216.488981 116.513205 216.02441 116.395198 215.533494 116.316527 215.053115 116.312056 211.504288 116.296859 207.958974 116.305798 204.411026 116.305798L203.954359 116.305798 203.954359 108.892809 204.468987 108.892809 204.468987 108.892809 204.468987 108.892809zM158.810224 116.138622C158.620532 116.959308 158.429083 117.786251 158.24466 118.607831 156.574314 125.942148 154.905724 133.266633 153.230109 140.597375 153.122968 141.052417 152.973673 141.507459 152.81384 141.943728 152.365955 143.115753 151.480724 143.714728 150.277583 143.847933 149.820038 143.897102 149.358103 143.92124 148.897923 143.91677 147.001878 143.90336 145.103199 143.92124 143.207154 143.836311 141.734404 143.772837 140.666506 143.016519 140.241455 141.532491 139.830455 140.083329 139.474782 138.614498 139.131404 137.145668 137.186179 128.938813 135.257641 120.73464 133.323833 112.52689 132.570333 109.346958 131.808929 106.167919 131.079141 102.977258 130.952679 102.412254 130.879788 101.815067 130.921942 101.245594 131.036987 99.7803393 131.930122 98.914954 133.441513 98.8407527 134.922167 98.7665512 136.403699 98.7880071 137.895769 98.7763853 138.582526 98.7763853 139.265769 98.7880071 139.956917 98.8273428 141.885455 98.9462437 142.938423 99.8456008 143.322199 101.775731 143.736712 103.852477 144.086237 105.944421 144.455962 108.032788 145.291135 112.710159 146.125429 117.393788 146.962359 122.079205 147.108141 122.89095 147.254801 123.700908 147.476987 124.532321 147.516506 124.419679 147.570077 124.299883 147.593788 124.180982 148.572109 119.931834 149.543404 115.677321 150.511186 111.429067 151.235705 108.274166 151.952321 105.123735 152.682109 101.97241 152.73041 101.749806 152.808571 101.537035 152.870923 101.319795 153.375891 99.7275936 154.478917 98.8809822 156.093936 98.8380706 158.153327 98.7880071 160.214474 98.7763853 162.272987 98.8318127 164.120731 98.8899222 165.154378 99.7320635 165.655833 101.556703 166.140603 103.342901 166.525256 105.157707 166.943282 106.962679 168.269372 112.700325 169.597218 118.443336 170.923308 124.185452 170.946141 124.299883 170.980391 124.403587 171.087532 124.532321 171.12266 124.428618 171.165692 124.318657 171.185891 124.210484 172.497929 116.879742 173.798551 109.545424 175.100929 102.215576 175.143962 101.96347 175.209827 101.720304 175.276571 101.472668 175.733237 99.7919611 176.680821 98.9247881 178.395955 98.8514806 180.334154 98.7719151 182.287282 98.8273428 184.232506 98.8318127 184.454692 98.8318127 184.679513 98.8854524 184.897308 98.9399857 186.311218 99.3002651 187.058571 100.399876 186.816186 101.96347 186.593122 103.376873 186.248865 104.770608 185.916904 106.167919 183.963776 114.471325 182.000987 122.776519 180.038199 131.07635 179.275917 134.297406 178.537346 137.522039 177.735545 140.732367 177.148026 143.065689 176.122282 143.872071 173.764301 143.910512 171.932365 143.945378 170.090769 143.926604 168.256199 143.91677 167.949705 143.910512 167.633551 143.867601 167.327058 143.816643 166.037853 143.636056 165.203558 142.871692 164.849641 141.637088 164.464987 140.326495 164.16025 138.990869 163.852878 137.653456 162.229955 130.575714 160.612301 123.489032 158.993769 116.41129 158.972692 116.316527 158.940199 116.227127 158.916487 116.132364 158.882237 116.132364 158.844474 116.138622 158.810224 116.138622L158.810224 116.138622 158.810224 116.138622zM68.714282 108.654113C68.7590707 108.643385 68.7977117 108.614777 68.8407437 108.614777 70.439077 108.635339 72.0426793 108.605837 73.6322307 108.704177 74.891577 108.779272 76.052564 109.209283 76.878955 110.27224 77.4796473 111.048226 77.6991987 111.969039 77.7870193 112.933657 77.8792307 113.874138 77.8493717 114.812831 77.6394807 115.731855 77.2478013 117.498385 76.120186 118.502339 74.4199807 118.888544 73.5584617 119.080753 69.6530833 119.200548 68.714282 119.058403L68.714282 108.654113 68.714282 108.654113 68.714282 108.654113zM68.7055 126.896933C68.7388717 126.886205 68.7775127 126.872795 68.816154 126.862067 68.884654 126.960406 68.957545 127.06411 69.021654 127.164237 71.4744807 131.161279 73.919404 135.161004 76.3871603 139.148212 77.0818207 140.275537 77.816 141.384088 78.587064 142.457774 79.336173 143.487654 80.414609 143.910512 81.6590257 143.91677 84.2585127 143.92124 86.8527307 143.927498 89.453096 143.910512 90.3330577 143.906936 91.1919423 143.754958 91.9551027 143.253427 92.7077243 142.759944 93.0344167 142.007202 92.7428527 141.150756 92.5189103 140.528537 92.1974873 139.925092 91.819859 139.386014 89.024532 135.419367 86.198468 131.482223 83.3785513 127.52988 82.8691923 126.803958 82.3484167 126.080717 81.8768207 125.412905 83.000923 124.853265 84.126782 124.373191 85.1771153 123.745608 87.859154 122.148042 89.7446603 119.878194 90.6281347 116.810905 91.3131347 114.456127 91.2604423 112.067378 90.852077 109.678629 90.4393207 107.29435 89.477686 105.177375 87.7862627 103.442134 86.2704807 101.893738 84.438545 100.89336 82.426577 100.20141 79.331782 99.1330885 76.1140383 98.8166147 72.879609 98.7880071 68.4332563 98.7468833 63.986904 98.7763853 59.5414293 98.7808552 59.244596 98.7808552 58.9381027 98.8058869 58.6474167 98.8371766 57.252827 98.9936254 56.4115063 99.7705052 56.1682437 101.175862 56.0813013 101.656831 56.0514423 102.161042 56.0514423 102.649163 56.0426603 115.134668 56.0479293 127.613021 56.0479293 140.099421 56.0479293 140.478473 56.06725 140.860208 56.105891 141.240156 56.2569423 142.729548 57.115827 143.763898 58.5446667 143.823795 60.9790513 143.92124 63.4274873 143.866707 65.8776793 143.877435 65.974282 143.877435 66.076154 143.858661 66.1727563 143.847933 67.514654 143.670028 68.3261153 142.937848 68.5974807 141.627254 68.666859 141.280385 68.7002307 140.920106 68.7002307 140.567873 68.7055 136.171215 68.7055 131.7683 68.7055 127.370749L68.7055 126.896933 68.7055 126.896933 68.7055 126.896933z"/></g></svg>