<?xml version="1.0" encoding="utf-8"?>
<!-- Generator: Adobe Illustrator 16.0.0, SVG Export Plug-In . SVG Version: 6.00 Build 0)  -->
<!DOCTYPE svg PUBLIC "-//W3C//DTD SVG 1.1//EN" "http://www.w3.org/Graphics/SVG/1.1/DTD/svg11.dtd">
<svg version="1.1" id="Ebene_1" xmlns="http://www.w3.org/2000/svg" xmlns:xlink="http://www.w3.org/1999/xlink" x="0px" y="0px"
	 width="30px" height="30px" viewBox="0 0 30 30" enable-background="new 0 0 30 30" xml:space="preserve">
<path fill="#524E4C" d="M26.797,0H3.203C1.425,0,0,1.434,0,3.199v23.606C0,28.576,1.434,30,3.203,30h23.594
	C28.576,30,30,28.568,30,26.805V3.2C30,1.43,28.566,0,26.797,0z M19.004,15.721l-5.99,5.99c-0.375,0.375-0.769,0.262-0.771-0.281
	l0.015-12.848c-0.004-0.535,0.295-0.668,0.68-0.283l6.061,6.06C19.375,14.735,19.375,15.35,19.004,15.721z"/>
</svg>
